<?xml version="1.0" encoding="utf-8"?>
<!-- Generator: Adobe Illustrator 16.0.4, SVG Export Plug-In . SVG Version: 6.00 Build 0)  -->
<!DOCTYPE svg PUBLIC "-//W3C//DTD SVG 1.1//EN" "http://www.w3.org/Graphics/SVG/1.1/DTD/svg11.dtd">
<svg version="1.1" id="Layer_1" xmlns="http://www.w3.org/2000/svg" xmlns:xlink="http://www.w3.org/1999/xlink" x="0px" y="0px"
	 width="122px" height="40px" viewBox="0 0 122 40" enable-background="new 0 0 122 40" xml:space="preserve">
<g>
	<path fill="#FFFFFF" d="M3.431,16.646l4.671-0.676v9.342l7.784-10.467l5.247-0.759l-9.14,12.22l11.055,10.857l-6.072,0.878
		l-8.874-8.806v10.089L3.431,40V16.646z"/>
	<path fill="#FFFFFF" d="M23.36,37.119l9.342-24.704l4.67-0.675l9.326,21.99l-4.967,0.733l-1.4-3.378l-10.588,1.531l-1.4,3.784
		L23.36,37.119z M35.161,18.286l-3.549,9.388l7.006-1.013L35.161,18.286z"/>
	<path fill="#FFFFFF" d="M48.91,33.425V10.071l1.557-0.226l14.636,12.52V7.73l4.67-0.676v23.354l-1.712,0.248L53.581,18.271V32.75
		L48.91,33.425z"/>
	<path fill="#FFFFFF" d="M75.503,26.225c-2.231-1.914-3.347-4.526-3.347-7.837c0-3.321,1.115-6.259,3.347-8.813
		c2.232-2.554,5.008-4.071,8.33-4.552c3.321-0.48,6.098,0.234,8.329,2.143c2.231,1.909,3.348,4.524,3.348,7.846
		s-1.116,6.259-3.348,8.813s-5.008,4.071-8.329,4.551C80.511,28.856,77.735,28.139,75.503,26.225z M83.849,24.014
		c2.065-0.299,3.746-1.243,5.044-2.832c1.298-1.588,1.946-3.421,1.946-5.497s-0.648-3.721-1.946-4.934
		c-1.298-1.214-2.989-1.67-5.075-1.368c-2.065,0.298-3.747,1.242-5.045,2.831c-1.297,1.589-1.945,3.421-1.945,5.497
		c0,2.076,0.648,3.721,1.945,4.934C80.07,23.86,81.763,24.316,83.849,24.014z"/>
	<path fill="#FFFFFF" d="M97.706,26.37V3.017l1.557-0.226l14.636,12.52V0.676L118.568,0v23.354l-1.712,0.248l-14.479-12.386v14.479
		L97.706,26.37z"/>
</g>
</svg>
